<svg width="82" height="84" viewBox="0 0 82 84" fill="none" xmlns="http://www.w3.org/2000/svg">
<path d="M43.1767 0.896729L33.3474 15.7471L38.5711 16.4033C36.9503 21.6996 36.6208 25.3467 37.0092 32.5962C39.4944 32.2042 41.5022 32.0645 44.1435 32.8406C42.4073 26.3648 42.5889 24.1522 43.2857 17.061L49.02 17.4613L43.1767 0.896729ZM81.5817 1.28521L62.5341 6.56392L66.2105 11.1298C57.5073 16.5824 52.0899 20.8941 47.7992 32.7798C50.1197 32.753 52.7383 33.2932 55.5642 34.3625C56.571 26.511 61.495 20.9785 69.504 15.2167L73.0166 19.5789L81.5817 1.28521ZM0.0941162 1.69126L11.6744 19.7062L15.029 14.6593C21.2787 20.3617 25.2498 28.0767 25.1027 33.5435C28.3666 32.0149 30.3633 31.8689 33.8452 32.8794C32.4205 27.3945 26.1852 13.7681 17.7368 10.1855L20.6494 5.60872L0.0942919 1.69108L0.0941162 1.69126ZM48.6303 39.4257C47.7022 39.4468 46.8356 39.8502 45.6531 41.1121L44.4991 42.3372L43.3017 41.1559C42.0032 39.8762 40.9785 39.5229 39.9399 39.5686C38.9013 39.6143 37.6802 40.1605 36.3144 41.2659L35.2215 42.1501L34.1834 41.2055C32.6189 39.7901 31.2856 39.3705 30.0086 39.4364C29.079 39.4846 28.1145 39.8347 27.1521 40.4472L34.3532 53.4005C37.0697 55.0618 42.6209 55.6867 46.4381 53.7629L53.398 40.8704C52.0779 40.3322 50.8914 39.7802 49.8659 39.5686C49.4946 39.4918 49.1504 39.4357 48.8168 39.4257C48.7547 39.4241 48.6924 39.4241 48.6303 39.4257ZM32.8153 56.3337V56.3341C29.6451 58.5739 27.0996 62.4367 26.1136 68.0946C25.1582 73.5782 26.6636 77.2819 29.3274 79.806C31.9912 82.33 35.9899 83.6268 40.0501 83.574C44.1106 83.5213 48.1599 82.1133 50.8826 79.5423C53.6054 76.9712 55.1451 73.3153 54.2718 68.0837C53.3688 62.6772 51.0375 58.917 48.0861 56.6414C43.0795 59.2879 36.8194 58.7254 32.8151 56.3337H32.8153Z" fill="#414B79"/>
</svg>
