<svg width="90" height="90" viewBox="0 0 90 90" fill="none" xmlns="http://www.w3.org/2000/svg">
<path d="M23.9062 53.2969H26.7188V67.3594H23.9062V53.2969ZM28.125 53.2969H30.9375V67.3594H28.125V53.2969ZM63.2812 53.2969H66.0938V67.3594H63.2812V53.2969ZM59.0625 53.2969H61.875V67.3594H59.0625V53.2969Z" fill="#414A73"/>
<path d="M87.1875 33.8217V29.8631L44.9845 2.8125L2.8125 29.8617V33.8203L5.07234 32.3705L6.30844 34.2169L2.8125 36.4613V39.0994H4.65891V41.6897H2.8125V44.3292H6.77813V47.0714H7.73438V79.0523H6.77813V81.9141H4.92188V84.5508H2.8125V87.1875H87.1875V84.5508H85.0781V81.9141H83.2219V79.0523H82.2656V47.0714H83.2219V44.3292H87.1875V41.6897H85.3411V39.0994H87.1875V36.4613L83.6902 34.2183L84.9262 32.3719L87.1875 33.8217ZM44.9845 6.76969L83.1488 31.2328L81.9141 33.0792L44.9845 9.40922L8.08594 33.0778L6.84984 31.2314L44.9845 6.76969ZM80.0409 36.4613H9.95906L44.9845 13.3341L80.0409 36.4613ZM18.9844 79.0523V76.6406H23.9062V74.0039H36.6666V73.2234H37.4484V59.4309C37.4484 49.4423 52.5516 49.2863 52.5516 59.4309V73.2234H53.3334V74.0039H66.0938V76.6406H71.0156V79.2773H18.9844V79.0523ZM22.5 68.7656V51.8906H32.3438V68.7656H22.5ZM57.6562 68.7656V51.8906H67.5V68.7656H57.6562ZM9.14062 47.0714H17.5781V79.0523H9.14062V47.0714ZM80.8594 79.0523H72.4219V47.0714H80.8594V79.0523ZM83.2331 41.6897H6.76828V39.0994H83.2331V41.6897Z" fill="#414A73"/>
<path d="M43.7428 16.7358V17.9972C41.5813 18.4936 39.9726 20.205 39.9726 22.2595C39.9726 24.6952 42.2282 26.678 44.9985 26.678C46.3837 26.678 47.5115 27.6694 47.5115 28.8872C47.5115 30.1064 46.3837 31.0978 44.9985 31.0978C43.6134 31.0978 42.4856 30.1064 42.4856 28.8872H39.9726C39.9726 30.9417 41.5813 32.6545 43.7428 33.1495V34.4109H46.2557V33.1495C48.4171 32.6531 50.0259 30.9417 50.0259 28.8872C50.0259 26.4516 47.7703 24.4687 44.9999 24.4687C43.6148 24.4687 42.487 23.4787 42.487 22.2595C42.487 21.0403 43.6148 20.0489 44.9999 20.0489C46.3851 20.0489 47.5129 21.0403 47.5129 22.2595H50.0259C50.0259 20.205 48.4171 18.4922 46.2557 17.9972V16.7358H43.7428ZM9.98291 48.3525H10.9785V77.8556H9.98291V48.3525ZM15.7387 48.3525H16.7343V77.8556H15.7387V48.3525ZM13.8206 48.3525H14.8148V77.8556H13.8206V48.3525ZM11.9024 48.3525H12.8967V77.8556H11.9024V48.3525ZM73.2642 48.3525H74.2598V77.8556H73.2642V48.3525ZM79.0199 48.3525H80.0156V77.8556H79.0199V48.3525ZM77.1018 48.3525H78.096V77.8556H77.1018V48.3525ZM75.1837 48.3525H76.1779V77.8556H75.1837V48.3525ZM38.5537 60.0159V73.2248H51.4462V60.0159C51.4462 50.5786 38.5537 50.722 38.5537 60.0159ZM44.3742 54.682V59.8176H40.0401C40.2117 56.7253 42.2015 55.0027 44.3742 54.682ZM44.3756 71.647H40.0288V67.3622H44.3756V71.647ZM44.3756 65.5172H40.0288V61.2323H44.3756V65.5172ZM50.1721 71.647H45.824V67.3622H50.1721V71.647ZM50.8471 63.0352V66.6787H49.0246V63.0352H50.8471ZM50.1721 62.6836H48.6745V65.5172H45.8254V61.2323H50.1735L50.1721 62.6836ZM45.824 59.8176V54.6722C47.9995 54.9703 49.9893 56.6775 50.1581 59.8176H45.824Z" fill="#414A73"/>
<path d="M50.1961 65.3442C50.1959 65.2999 50.1844 65.2564 50.1626 65.2178C50.1409 65.1792 50.1096 65.1469 50.0719 65.1237C50.0341 65.1006 49.9911 65.0875 49.9468 65.0856C49.9026 65.0838 49.8586 65.0933 49.819 65.1132C49.7795 65.1331 49.7456 65.1628 49.7208 65.1994C49.6959 65.2361 49.6808 65.2784 49.6769 65.3226C49.6729 65.3667 49.6803 65.4111 49.6984 65.4515C49.7164 65.492 49.7445 65.5271 49.7799 65.5537L49.6716 66.2484H50.1975L50.0893 65.5537C50.1227 65.53 50.1499 65.4986 50.1685 65.4621C50.1871 65.4256 50.1966 65.3851 50.1961 65.3442ZM49.9388 64.7325C50.0369 64.7323 50.1339 64.7128 50.2245 64.6751C50.315 64.6374 50.3972 64.5822 50.4664 64.5127C50.5356 64.4433 50.5905 64.3609 50.6278 64.2702C50.6652 64.1795 50.6843 64.0824 50.6841 63.9843C50.6839 63.8863 50.6644 63.7892 50.6267 63.6987C50.589 63.6082 50.5339 63.5259 50.4644 63.4567C50.3949 63.3875 50.3125 63.3327 50.2219 63.2953C50.1312 63.258 50.034 63.2388 49.936 63.239C49.7379 63.2394 49.5482 63.3184 49.4084 63.4587C49.2686 63.599 49.1903 63.7891 49.1907 63.9871C49.191 64.1852 49.2701 64.375 49.4104 64.5147C49.5507 64.6545 49.7408 64.7328 49.9388 64.7325Z" fill="#414A73"/>
</svg>
