<svg width="90" height="90" viewBox="0 0 90 90" fill="none" xmlns="http://www.w3.org/2000/svg">
<path d="M3.64176 28.5011H86.3582V24.9975C86.3582 17.2399 82.4046 13.3217 74.5312 13.3217H15.4687C7.59694 13.3217 3.64016 17.2399 3.64016 24.9992L3.64176 28.5011ZM3.64176 65.0395C3.64176 72.7988 7.59534 76.6784 15.4687 76.6784H74.5312C82.403 76.6784 86.3598 72.7988 86.3598 65.0395V37.0527H3.63855L3.64176 65.0395ZM16.2225 55.8483V48.8797C16.2225 46.7711 17.6914 45.2636 19.9141 45.2636H29.1423C31.365 45.2636 32.8339 46.7711 32.8339 48.8797V55.8483C32.8339 57.9954 31.365 59.4643 29.1423 59.4643H19.9125C17.6898 59.4643 16.2225 57.9954 16.2225 55.8483Z" fill="#414A73"/>
</svg>
