<svg width="90" height="90" viewBox="0 0 90 90" fill="none" xmlns="http://www.w3.org/2000/svg">
<path d="M49.3393 49.9799H29.3143C23.5182 49.9868 17.9614 52.2924 13.8629 56.3909C9.76438 60.4895 7.45879 66.0462 7.45184 71.8424V78.5174C7.45184 79.0147 7.64939 79.4916 8.00102 79.8432C8.35265 80.1949 8.82956 80.3924 9.32684 80.3924H69.3268C69.8241 80.3924 70.301 80.1949 70.6527 79.8432C71.0043 79.4916 71.2018 79.0147 71.2018 78.5174V71.8424C71.1959 66.0459 68.8906 60.4886 64.7919 56.3898C60.6932 52.2911 55.1358 49.9858 49.3393 49.9799Z" fill="#414A73"/>
<path d="M39.3263 42.8926C48.6461 42.8926 56.2013 35.3374 56.2013 26.0176C56.2013 16.6978 48.6461 9.14264 39.3263 9.14264C30.0065 9.14264 22.4513 16.6978 22.4513 26.0176C22.4513 35.3374 30.0065 42.8926 39.3263 42.8926Z" fill="#414A73"/>
<path d="M78.75 37.5H73.125V31.875C73.125 30.8804 72.7299 29.9266 72.0267 29.2234C71.3234 28.5201 70.3696 28.125 69.375 28.125C68.3804 28.125 67.4266 28.5201 66.7233 29.2234C66.0201 29.9266 65.625 30.8804 65.625 31.875V37.5H60C59.0054 37.5 58.0516 37.8951 57.3484 38.5984C56.6451 39.3016 56.25 40.2554 56.25 41.25C56.25 42.2446 56.6451 43.1984 57.3484 43.9016C58.0516 44.6049 59.0054 45 60 45H65.625V50.625C65.625 51.6196 66.0201 52.5734 66.7233 53.2766C67.4266 53.9799 68.3804 54.375 69.375 54.375C70.3696 54.375 71.3234 53.9799 72.0267 53.2766C72.7299 52.5734 73.125 51.6196 73.125 50.625V45H78.75C79.7446 45 80.6984 44.6049 81.4017 43.9016C82.1049 43.1984 82.5 42.2446 82.5 41.25C82.5 40.2554 82.1049 39.3016 81.4017 38.5984C80.6984 37.8951 79.7446 37.5 78.75 37.5Z" fill="#414A73"/>
</svg>
