<svg width="90" height="90" viewBox="0 0 90 90" fill="none" xmlns="http://www.w3.org/2000/svg">
<path d="M48.8587 17.3588L59.8125 10.5863L79.425 24.2607L67.3631 33.4969M67.8825 53.6494L79.6875 44.0119M67.8825 48.6601L79.6875 39.0226M67.8825 43.6726L79.6875 34.0351M67.8825 38.6851L79.6875 29.0476M30.9694 26.8951L45.4162 17.8951L64.68 34.1851V57.7463L53.4919 66.8138V44.6569L30.9694 26.8951Z" stroke="#414A73" stroke-width="0.625" stroke-linecap="round" stroke-linejoin="round"/>
<path d="M66.2137 26.5726L71.3194 22.6782L67.8225 20.3401L65.0137 22.4607M10.3125 59.9138L35.7056 79.4138L49.6237 68.3326" stroke="#414A73" stroke-width="0.625" stroke-linecap="round" stroke-linejoin="round"/>
<path d="M10.3125 54.9094L35.7056 74.4094L49.6237 63.3282" stroke="#414A73" stroke-width="0.625" stroke-linecap="round" stroke-linejoin="round"/>
<path d="M10.5075 49.905L35.9006 69.4069L49.8188 58.3257" stroke="#414A73" stroke-width="0.625" stroke-linecap="round" stroke-linejoin="round"/>
<path d="M10.4813 44.9025L35.8725 64.4025L49.7906 53.3212M37.9406 44.5312C37.5169 46.4569 34.7644 47.445 31.7944 46.7344C28.8244 46.0256 26.76 43.89 27.1838 41.9625C27.6075 40.0369 30.36 39.0506 33.33 39.7594C36.3 40.4681 38.3644 42.6056 37.9406 44.5312Z" stroke="#414A73" stroke-width="0.625" stroke-linecap="round" stroke-linejoin="round"/>
<path d="M28.2206 29.6738L10.7925 40.1645L35.7881 59.1338L50.1131 47.8557" stroke="#414A73" stroke-width="0.625" stroke-linecap="round" stroke-linejoin="round"/>
</svg>
