<svg width="100" height="100" viewBox="0 0 100 100" fill="none" xmlns="http://www.w3.org/2000/svg">
<path d="M87.5 47.9167L93.75 54.1667L64.625 83.3333L45.8334 64.5833L52.0834 58.3333L64.625 70.8333L87.5 47.9167Z" fill="#414A73"/>
<path opacity="0.3" d="M70.8334 20.8333V33.3333H29.1667V20.8333H20.8334V79.1667H48.6667L34.0417 64.5833L52.0834 46.5417L64.625 59.0417L79.1667 44.4583V20.8333H70.8334Z" fill="#414A73"/>
<path d="M20.8333 79.1667V20.8333H29.1667V33.3333H70.8333V20.8333H79.1667V44.4583L87.5 36.125V20.8333C87.5 16.25 83.75 12.5 79.1667 12.5H61.75C60 7.66666 55.4167 4.16666 50 4.16666C44.5833 4.16666 40 7.66666 38.25 12.5H20.8333C16.25 12.5 12.5 16.25 12.5 20.8333V79.1667C12.5 83.75 16.25 87.5 20.8333 87.5H57L48.6667 79.1667H20.8333ZM50 12.5C52.2917 12.5 54.1667 14.375 54.1667 16.6667C54.1667 18.9583 52.2917 20.8333 50 20.8333C47.7083 20.8333 45.8333 18.9583 45.8333 16.6667C45.8333 14.375 47.7083 12.5 50 12.5Z" fill="#414A73"/>
</svg>
