<svg width="85" height="85" viewBox="0 0 85 85" fill="none" xmlns="http://www.w3.org/2000/svg">
<path d="M14.6875 0.625C10.9579 0.625 7.38104 2.10658 4.74381 4.74381C2.10658 7.38104 0.625 10.9579 0.625 14.6875V42.8125C0.625 46.5421 2.10658 50.119 4.74381 52.7562C7.38104 55.3934 10.9579 56.875 14.6875 56.875H28.8737C29.1625 53.6995 29.9405 50.5878 31.18 47.65C30.4038 47.7062 29.59 47.7344 28.7388 47.7344C22.8044 47.7344 18.76 46.3563 16.1613 44.2469C13.54 42.1206 12.5781 39.3981 12.5781 37.1875V35.7812C12.5781 32.2825 15.4131 29.4531 18.9062 29.4531H38.5938C41.0462 29.4531 43.1725 30.8481 44.2188 32.8844C48.0976 30.6474 52.4157 29.279 56.875 28.8737V14.6875C56.875 10.9579 55.3934 7.38104 52.7562 4.74381C50.119 2.10658 46.5421 0.625 42.8125 0.625H14.6875ZM14.6875 62.5H28.8737C29.0537 64.435 29.4006 66.31 29.9144 68.125H25.9375C23.7544 68.125 21.6012 67.6167 19.6486 66.6404C17.6959 65.6641 15.9974 64.2465 14.6875 62.5ZM68.125 25.9375V29.9144C66.2862 29.3945 64.4031 29.0462 62.5 28.8737V14.6875C65.9144 17.2525 68.125 21.3363 68.125 25.9375ZM28.75 25.9375C26.5122 25.9375 24.3661 25.0486 22.7838 23.4662C21.2014 21.8839 20.3125 19.7378 20.3125 17.5C20.3125 15.2622 21.2014 13.1161 22.7838 11.5338C24.3661 9.95145 26.5122 9.0625 28.75 9.0625C30.9878 9.0625 33.1339 9.95145 34.7162 11.5338C36.2986 13.1161 37.1875 15.2622 37.1875 17.5C37.1875 19.7378 36.2986 21.8839 34.7162 23.4662C33.1339 25.0486 30.9878 25.9375 28.75 25.9375ZM85 59.6875C85 66.4008 82.3332 72.8391 77.5861 77.5861C72.8391 82.3332 66.4008 85 59.6875 85C52.9742 85 46.5359 82.3332 41.7889 77.5861C37.0418 72.8391 34.375 66.4008 34.375 59.6875C34.375 52.9742 37.0418 46.5359 41.7889 41.7889C46.5359 37.0418 52.9742 34.375 59.6875 34.375C66.4008 34.375 72.8391 37.0418 77.5861 41.7889C82.3332 46.5359 85 52.9742 85 59.6875ZM62.5 48.4375C62.5 47.6916 62.2037 46.9762 61.6762 46.4488C61.1488 45.9213 60.4334 45.625 59.6875 45.625C58.9416 45.625 58.2262 45.9213 57.6988 46.4488C57.1713 46.9762 56.875 47.6916 56.875 48.4375V56.875H48.4375C47.6916 56.875 46.9762 57.1713 46.4488 57.6988C45.9213 58.2262 45.625 58.9416 45.625 59.6875C45.625 60.4334 45.9213 61.1488 46.4488 61.6762C46.9762 62.2037 47.6916 62.5 48.4375 62.5H56.875V70.9375C56.875 71.6834 57.1713 72.3988 57.6988 72.9262C58.2262 73.4537 58.9416 73.75 59.6875 73.75C60.4334 73.75 61.1488 73.4537 61.6762 72.9262C62.2037 72.3988 62.5 71.6834 62.5 70.9375V62.5H70.9375C71.6834 62.5 72.3988 62.2037 72.9262 61.6762C73.4537 61.1488 73.75 60.4334 73.75 59.6875C73.75 58.9416 73.4537 58.2262 72.9262 57.6988C72.3988 57.1713 71.6834 56.875 70.9375 56.875H62.5V48.4375Z" fill="#414A73"/>
</svg>
