<svg width="76" height="72" viewBox="0 0 76 72" fill="none" xmlns="http://www.w3.org/2000/svg">
<path d="M75.5 0.25H0.5V22.75H4.25V64C4.25 65.9891 5.04018 67.8968 6.4467 69.3033C7.85322 70.7098 9.76088 71.5 11.75 71.5H64.25C66.2391 71.5 68.1468 70.7098 69.5533 69.3033C70.9598 67.8968 71.75 65.9891 71.75 64V22.75H75.5V0.25ZM8 7.75H68V15.25H8V7.75ZM64.25 64H11.75V22.75H64.25V64ZM26.75 30.25H49.25C49.25 32.2391 48.4598 34.1468 47.0533 35.5533C45.6468 36.9598 43.7391 37.75 41.75 37.75H34.25C32.2609 37.75 30.3532 36.9598 28.9467 35.5533C27.5402 34.1468 26.75 32.2391 26.75 30.25Z" fill="#414A73"/>
</svg>
