<svg width="75" height="75" viewBox="0 0 75 75" fill="none" xmlns="http://www.w3.org/2000/svg">
<path d="M36.4012 1.09875C35.6982 0.39544 34.7445 0.00021239 33.75 0H15C14.0055 0.00021239 13.0518 0.39544 12.3488 1.09875L1.09875 12.3488C0.39544 13.0518 0.00021239 14.0055 0 15V33.75C0 34.7475 0.39375 35.7 1.09875 36.4012L38.5988 73.9013C38.9462 74.2507 39.3593 74.528 39.8143 74.7172C40.2693 74.9065 40.7572 75.0039 41.25 75.0039C41.7428 75.0039 42.2307 74.9065 42.6857 74.7172C43.1407 74.528 43.5538 74.2507 43.9012 73.9013L73.9013 43.9012C74.6043 43.198 74.9992 42.2444 74.9992 41.25C74.9992 40.2556 74.6043 39.302 73.9013 38.5988L36.4012 1.09875ZM23.8237 30C23.0001 30.0205 22.1807 29.8761 21.4138 29.5752C20.6468 29.2742 19.9478 28.8229 19.3579 28.2477C18.768 27.6725 18.2992 26.9852 17.979 26.2261C17.6588 25.4669 17.4937 24.6514 17.4935 23.8275C17.4932 23.0037 17.6578 22.1881 17.9775 21.4287C18.2973 20.6694 18.7657 19.9818 19.3552 19.4062C19.9448 18.8307 20.6435 18.3789 21.4103 18.0775C22.177 17.7761 22.9964 17.6312 23.82 17.6512C25.4312 17.6905 26.9633 18.3579 28.0891 19.5112C29.215 20.6644 29.8455 22.2121 29.846 23.8238C29.8464 25.4355 29.2169 26.9835 28.0918 28.1375C26.9666 29.2914 25.4349 29.9598 23.8237 30Z" fill="#414A73"/>
</svg>
