<svg width="74" height="74" viewBox="0 0 74 74" fill="none" xmlns="http://www.w3.org/2000/svg">
<path d="M25.75 70.75H48.25M25.75 70.75V52M25.75 70.75H5.5C4.90326 70.75 4.33097 70.5129 3.90901 70.091C3.48705 69.669 3.25 69.0967 3.25 68.5V54.25C3.25 53.6533 3.48705 53.081 3.90901 52.659C4.33097 52.2371 4.90326 52 5.5 52H25.75M48.25 70.75V25.75M48.25 70.75H68.5C69.0967 70.75 69.669 70.5129 70.091 70.091C70.5129 69.669 70.75 69.0967 70.75 68.5V5.5C70.75 4.90326 70.5129 4.33097 70.091 3.90901C69.669 3.48705 69.0967 3.25 68.5 3.25H50.5C49.9033 3.25 49.331 3.48705 48.909 3.90901C48.4871 4.33097 48.25 4.90326 48.25 5.5V25.75M25.75 52V28C25.75 27.4033 25.9871 26.831 26.409 26.409C26.831 25.9871 27.4033 25.75 28 25.75H48.25" stroke="#414A73" stroke-width="5.625"/>
</svg>
