<svg width="80" height="80" viewBox="0 0 80 80" fill="none" xmlns="http://www.w3.org/2000/svg">
<path d="M79.375 11.875V6.25H70.9375V0.625H65.3125V6.25H62.5C59.3978 6.25 56.875 8.77563 56.875 11.875V17.5C56.875 20.6022 59.3978 23.125 62.5 23.125H73.75V28.75H56.875V34.375H65.3125V40H70.9375V34.375H73.75C76.8522 34.375 79.375 31.8522 79.375 28.75V23.125C79.375 20.0256 76.8522 17.5 73.75 17.5H62.5V11.875H79.375ZM62.5 51.25V56.875H69.7731L59.6875 66.9606L53.2412 60.5116C52.7146 59.9848 52.0005 59.6884 51.2556 59.6875H51.25C50.5051 59.6884 49.791 59.9848 49.2644 60.5116L34.375 75.3981L38.3519 79.375L51.2528 66.4769L57.6991 72.9259C58.2265 73.4532 58.9417 73.7494 59.6875 73.7494C60.4333 73.7494 61.1485 73.4532 61.6759 72.9259L73.75 60.8519V68.125H79.375V51.25H62.5ZM6.25 79.375H0.625V65.3125C0.625 54.4562 9.45625 45.625 20.3125 45.625H37.1875C42.7816 45.625 48.1281 48.0156 51.8603 52.1866L47.6697 55.9384C46.3507 54.4635 44.7352 53.2835 42.9289 52.4756C41.1227 51.6676 39.1662 51.25 37.1875 51.25H20.3125C12.5584 51.25 6.25 57.5584 6.25 65.3125V79.375ZM28.75 40C33.9715 40 38.979 37.9258 42.6712 34.2337C46.3633 30.5415 48.4375 25.5339 48.4375 20.3125C48.4375 15.0911 46.3633 10.0835 42.6712 6.39134C38.979 2.69921 33.9715 0.625 28.75 0.625C23.5286 0.625 18.521 2.69921 14.8288 6.39134C11.1367 10.0835 9.0625 15.0911 9.0625 20.3125C9.0625 25.5339 11.1367 30.5415 14.8288 34.2337C18.521 37.9258 23.5286 40 28.75 40ZM28.75 6.25C32.4796 6.25 36.0565 7.73158 38.6937 10.3688C41.3309 13.006 42.8125 16.5829 42.8125 20.3125C42.8125 24.0421 41.3309 27.619 38.6937 30.2562C36.0565 32.8934 32.4796 34.375 28.75 34.375C25.0204 34.375 21.4435 32.8934 18.8063 30.2562C16.1691 27.619 14.6875 24.0421 14.6875 20.3125C14.6875 16.5829 16.1691 13.006 18.8063 10.3688C21.4435 7.73158 25.0204 6.25 28.75 6.25Z" fill="#414B79"/>
</svg>
