<svg width="80" height="58" viewBox="0 0 80 58" fill="none" xmlns="http://www.w3.org/2000/svg">
<path fill-rule="evenodd" clip-rule="evenodd" d="M48.4375 0.875C49.9908 0.875 51.25 2.13421 51.25 3.6875V17.75H66.6146C67.079 17.75 67.5361 17.865 67.9453 18.0847C68.3544 18.3045 68.7027 18.6221 68.9592 19.0092L78.9072 34.025C79.2123 34.4855 79.375 35.0258 79.375 35.5783V43.0625C79.375 44.6158 78.1158 45.875 76.5625 45.875H68.125C68.125 52.0882 63.0882 57.125 56.875 57.125C50.6618 57.125 45.625 52.0882 45.625 45.875H28.75C28.75 52.0882 23.7132 57.125 17.5 57.125C11.2868 57.125 6.25 52.0882 6.25 45.875H3.4375C1.88421 45.875 0.625 44.6158 0.625 43.0625V3.6875C0.625 2.13421 1.88421 0.875 3.4375 0.875H48.4375ZM17.5 40.25C14.3934 40.25 11.875 42.7684 11.875 45.875C11.875 48.9816 14.3934 51.5 17.5 51.5L17.593 51.4992C20.6567 51.4496 23.125 48.9506 23.125 45.875C23.125 42.7684 20.6066 40.25 17.5 40.25ZM56.875 40.25C53.7684 40.25 51.25 42.7684 51.25 45.875C51.25 48.9816 53.7684 51.5 56.875 51.5L56.968 51.4992C60.0317 51.4496 62.5 48.9506 62.5 45.875C62.5 42.7684 59.9816 40.25 56.875 40.25ZM65.1041 23.375H51.25V36.13C52.9049 35.1729 54.826 34.625 56.875 34.625C61.0391 34.625 64.6749 36.8874 66.62 40.25H73.75V36.4254L65.1041 23.375ZM38.9453 23.375H24.1797C23.5972 23.375 23.125 23.8472 23.125 24.4297V27.9453C23.125 28.5278 23.5972 29 24.1797 29H38.9453C39.5278 29 40 28.5278 40 27.9453V24.4297C40 23.8472 39.5278 23.375 38.9453 23.375ZM22.0703 12.125H12.9297C12.3472 12.125 11.875 12.5972 11.875 13.1797V16.6953C11.875 17.2778 12.3472 17.75 12.9297 17.75H22.0703C22.6528 17.75 23.125 17.2778 23.125 16.6953V13.1797C23.125 12.5972 22.6528 12.125 22.0703 12.125Z" fill="#414A73"/>
</svg>
