<svg width="90" height="90" viewBox="0 0 90 90" fill="none" xmlns="http://www.w3.org/2000/svg">
<path d="M60 11.25V26.25M30 11.25V26.25M15 41.25H75M15 26.25C15 24.2609 15.7902 22.3532 17.1967 20.9467C18.6032 19.5402 20.5109 18.75 22.5 18.75H67.5C69.4891 18.75 71.3968 19.5402 72.8033 20.9467C74.2098 22.3532 75 24.2609 75 26.25V71.25C75 73.2391 74.2098 75.1468 72.8033 76.5533C71.3968 77.9598 69.4891 78.75 67.5 78.75H22.5C20.5109 78.75 18.6032 77.9598 17.1967 76.5533C15.7902 75.1468 15 73.2391 15 71.25V26.25Z" stroke="#414B79" stroke-width="7.5" stroke-linecap="round" stroke-linejoin="round"/>
<path d="M41.25 60C41.25 60.9946 41.6451 61.9484 42.3484 62.6517C43.0516 63.3549 44.0054 63.75 45 63.75C45.9946 63.75 46.9484 63.3549 47.6516 62.6517C48.3549 61.9484 48.75 60.9946 48.75 60C48.75 59.0054 48.3549 58.0516 47.6516 57.3484C46.9484 56.6451 45.9946 56.25 45 56.25C44.0054 56.25 43.0516 56.6451 42.3484 57.3484C41.6451 58.0516 41.25 59.0054 41.25 60Z" stroke="#414B79" stroke-width="7.5" stroke-linecap="round" stroke-linejoin="round"/>
</svg>
